<?xml version="1.0" standalone="no"?>
<!DOCTYPE svg PUBLIC "-//W3C//DTD SVG 20010904//EN"
 "http://www.w3.org/TR/2001/REC-SVG-20010904/DTD/svg10.dtd">
<svg version="1.0" xmlns="http://www.w3.org/2000/svg"
 width="2130.000000pt" height="2130.000000pt" viewBox="0 0 2130.000000 2130.000000"
 preserveAspectRatio="xMidYMid meet">
<metadata>
Created by potrace 1.11, written by Peter Selinger 2001-2013
</metadata>
<g transform="translate(0.000000,2130.000000) scale(0.100000,-0.100000)"
fill="#000000" stroke="none">
<path d="M9975 21259 c-1737 -119 -3350 -623 -4809 -1501 -1452 -874 -2658
-2067 -3579 -3539 -276 -442 -607 -1094 -798 -1571 -429 -1072 -676 -2139
-759 -3268 -30 -406 -22 -1257 15 -1660 188 -2015 891 -3852 2086 -5445 323
-431 578 -724 984 -1131 566 -568 1063 -975 1710 -1399 399 -263 633 -395
1165 -659 443 -220 759 -350 1262 -521 960 -326 1962 -510 2978 -546 2042 -74
3958 401 5730 1419 1598 918 2966 2289 3898 3907 762 1323 1233 2802 1371
4310 35 379 44 639 38 1140 -5 456 -11 575 -42 890 -316 3172 -2029 6026
-4680 7800 -422 282 -713 450 -1225 704 -1253 624 -2629 986 -4067 1071 -200
12 -1102 11 -1278 -1z m965 -3470 c265 -30 474 -74 620 -130 96 -36 244 -115
483 -257 127 -77 305 -181 395 -232 317 -179 402 -264 722 -719 172 -244 219
-304 387 -487 467 -510 660 -780 787 -1102 67 -170 80 -244 80 -447 0 -215 -2
-221 -149 -596 -147 -374 -323 -715 -437 -849 -187 -218 -364 -345 -745 -531
-361 -175 -531 -238 -783 -289 -297 -60 -351 -62 -1330 -67 -938 -5 -1101 -1
-1405 38 -321 40 -613 121 -911 250 -197 85 -842 406 -916 455 -90 60 -180
144 -266 248 -36 45 -163 180 -282 301 -118 121 -237 250 -264 285 -177 236
-194 443 -69 825 133 409 356 788 718 1220 271 323 929 981 1350 1349 481 420
857 633 1276 721 226 47 422 51 739 14z m4370 -5559 c102 -17 294 -67 399
-106 268 -98 596 -292 841 -497 161 -134 416 -397 549 -564 519 -655 894
-1467 1076 -2333 104 -496 65 -748 -181 -1167 -130 -223 -235 -351 -376 -459
-138 -107 -644 -417 -839 -514 -422 -212 -881 -352 -1360 -416 -165 -22 -530
-29 -749 -15 -603 39 -1057 143 -1555 356 -513 221 -871 448 -1141 727 -291
301 -443 626 -485 1038 -23 226 20 948 72 1205 59 295 158 500 327 677 163
170 365 287 907 521 412 179 513 232 682 359 101 75 303 253 483 424 178 168
379 348 477 426 329 264 623 377 873 338z m-9090 -224 c279 -59 503 -186 1095
-621 593 -436 732 -508 1103 -571 346 -59 531 -107 767 -196 583 -222 972
-597 1139 -1099 68 -205 96 -394 96 -659 0 -363 -78 -777 -207 -1100 -230
-576 -649 -1008 -1288 -1327 -655 -328 -1328 -485 -2225 -518 -675 -25 -1444
142 -2100 457 -269 129 -784 427 -930 538 -114 87 -228 213 -322 356 -225 340
-303 536 -315 789 -7 146 6 252 57 491 328 1524 1081 2690 2071 3203 397 207
817 308 1059 257z"/>
</g>
</svg>
